<svg xmlns="http://www.w3.org/2000/svg" width="28" height="28" fill="none">
  <g transform="translate(0, 28) scale(0.01400, -0.01400)" stroke="none">
    <path
    fill="#fff"
      d="M1006 1639 c-64 -77 -120 -139 -125 -139 -4 0 -77 29 -162 64 -85 36
-159 66 -165 68 -8 2 -239 -254 -247 -275 -4 -10 187 -317 197 -317 6 0 89 18
184 41 136 33 172 45 172 58 0 36 29 323 33 327 2 2 43 -60 92 -137 49 -77 94
-143 100 -145 7 -3 82 13 169 34 86 22 156 37 156 33 0 -3 -46 -62 -100 -131
-56 -70 -99 -132 -97 -141 2 -8 41 -71 86 -138 55 -81 76 -121 64 -117 -10 3
-74 21 -143 41 -69 20 -130 38 -136 40 -6 2 -47 -49 -90 -112 -64 -95 -79
-113 -85 -97 -4 10 -15 73 -24 139 -9 66 -17 121 -18 122 -9 9 -361 63 -367
57 -13 -13 -170 -310 -170 -320 0 -5 58 -67 130 -139 l129 -129 146 72 c81 40
148 72 149 72 2 0 48 -58 102 -130 54 -71 104 -130 109 -130 6 0 84 27 175 59
l165 59 -2 176 -1 176 66 19 c37 11 112 33 167 48 l100 29 8 89 c4 50 6 134 5
189 l-3 98 -158 59 c-86 32 -161 60 -165 63 -4 2 -2 85 5 182 6 98 11 180 9
181 -2 2 -80 34 -173 72 l-170 68 -117 -138z"
    />
  </g>
</svg>